<svg width="324" height="37" viewBox="0 0 324 37" fill="none" xmlns="http://www.w3.org/2000/svg">
<path d="M3 17L321 17.5032" stroke="black" stroke-opacity="0.89" stroke-width="5" stroke-linecap="round"/>
<g filter="url(#filter0_i_1_8)">
<path d="M241.597 7.10207C241.597 3.74877 244.346 1.04636 247.698 1.10292L271.237 1.5L294.375 0.33871C297.966 0.158526 300.907 3.15405 300.662 6.74033L299.249 27.4092C299.034 30.5567 296.418 33 293.263 33H270.232L248.325 35.6777C244.749 36.1147 241.597 33.3244 241.597 29.722V7.10207Z" fill="#D52828"/>
</g>
<path d="M271.229 1.99993L271.245 2.00021L271.262 1.99937L294.401 0.838081C297.691 0.672913 300.388 3.41881 300.163 6.70624L298.751 27.3751C298.553 30.2603 296.155 32.5 293.263 32.5H270.232H270.202L270.172 32.5037L248.264 35.1814C244.987 35.582 242.097 33.0242 242.097 29.722V7.10207C242.097 4.02821 244.616 1.55101 247.69 1.60285L271.229 1.99993Z" stroke="black"/>
<rect x="245.114" y="5.00006" width="6.02844" height="24" fill="#D9D9D9"/>
<rect x="245.614" y="5.50006" width="5.02844" height="23" stroke="black" stroke-opacity="0.88"/>
<rect x="256.166" y="5.00006" width="6.02844" height="24" fill="#D9D9D9"/>
<rect x="256.666" y="5.50006" width="5.02844" height="23" stroke="black" stroke-opacity="0.88"/>
<rect x="267.218" y="5.00006" width="6.02844" height="24" fill="#D9D9D9"/>
<rect x="267.718" y="5.50006" width="5.02844" height="23" stroke="black" stroke-opacity="0.88"/>
<rect x="278.27" y="5.00006" width="6.02844" height="24" fill="#D9D9D9"/>
<rect x="278.77" y="5.50006" width="5.02844" height="23" stroke="black" stroke-opacity="0.88"/>
<rect x="289.322" y="5.00006" width="6.02844" height="24" fill="#D9D9D9"/>
<rect x="289.822" y="5.50006" width="5.02844" height="23" stroke="black" stroke-opacity="0.88"/>
<defs>
<filter id="filter0_i_1_8" x="241.597" y="0.330994" width="65.0794" height="36.3918" filterUnits="userSpaceOnUse" color-interpolation-filters="sRGB">
<feFlood flood-opacity="0" result="BackgroundImageFix"/>
<feBlend mode="normal" in="SourceGraphic" in2="BackgroundImageFix" result="shape"/>
<feColorMatrix in="SourceAlpha" type="matrix" values="0 0 0 0 0 0 0 0 0 0 0 0 0 0 0 0 0 0 127 0" result="hardAlpha"/>
<feOffset dx="6" dy="1"/>
<feGaussianBlur stdDeviation="11"/>
<feComposite in2="hardAlpha" operator="arithmetic" k2="-1" k3="1"/>
<feColorMatrix type="matrix" values="0 0 0 0 0.755843 0 0 0 0 0.209099 0 0 0 0 0.209099 0 0 0 1 0"/>
<feBlend mode="normal" in2="shape" result="effect1_innerShadow_1_8"/>
</filter>
</defs>
</svg>
